<?xml version="1.0" standalone="no"?>
<!DOCTYPE svg PUBLIC "-//W3C//DTD SVG 20010904//EN"
 "http://www.w3.org/TR/2001/REC-SVG-20010904/DTD/svg10.dtd">
<svg version="1.0" xmlns="http://www.w3.org/2000/svg"
 width="580.000000pt" height="580.000000pt" viewBox="0 0 580.000000 580.000000"
 preserveAspectRatio="xMidYMid meet">
<metadata>
Created by potrace 1.11, written by Peter Selinger 2001-2013
</metadata>
<g transform="translate(0.000000,580.000000) scale(0.100000,-0.100000)"
fill="#000000" stroke="none">
<path d="M2730 5550 c-1105 -74 -2042 -819 -2364 -1881 -40 -132 -80 -330 -95
-471 -18 -160 -13 -450 8 -447 3 0 79 98 169 217 89 119 226 301 305 404 l142
187 250 188 c289 218 375 285 463 365 80 73 114 83 201 61 184 -45 271 -69
431 -118 283 -87 333 -106 347 -135 19 -41 52 -170 43 -170 -4 0 -25 27 -46
60 -30 47 -47 62 -74 70 -81 23 -365 80 -497 100 -264 40 -238 31 473 -153
l42 -10 81 -178 c141 -307 151 -363 71 -404 -81 -42 -209 12 -305 129 l-34 42
19 80 c10 43 17 80 15 82 -1 2 -20 -25 -41 -60 -20 -35 -41 -68 -46 -74 -8
-12 -54 -4 -251 39 -58 13 -58 13 -81 69 -13 31 -33 72 -45 90 -22 32 -22 32
-17 6 4 -15 9 -54 12 -86 l6 -58 -132 -150 c-164 -185 -177 -208 -191 -315
-26 -198 62 -424 205 -528 118 -86 221 -143 315 -176 264 -92 423 -195 529
-343 106 -149 123 -330 40 -419 -28 -30 -63 -29 -83 1 -39 59 -217 157 -390
215 -260 87 -630 129 -881 100 -149 -17 -394 -17 -453 0 -60 17 -62 7 -4 -22
60 -31 139 -54 215 -63 32 -3 58 -10 58 -14 0 -5 -47 -147 -105 -316 -58 -169
-103 -315 -100 -325 3 -10 61 -71 129 -137 682 -659 1659 -901 2572 -638 936
269 1665 1063 1853 2016 40 208 46 271 46 530 0 285 -12 392 -71 630 -38 158
-115 390 -129 390 -2 0 -21 -25 -42 -55 l-36 -56 -17 53 c-22 72 -64 152 -111
215 -33 44 -39 60 -39 100 0 27 -4 63 -10 82 -7 25 -6 42 5 68 11 25 12 40 5
54 -12 21 -30 25 -30 7 0 -7 -4 -19 -9 -27 -7 -11 -14 -9 -39 9 l-30 22 19 42
c15 34 16 44 5 60 -22 34 -32 28 -51 -33 -17 -58 -18 -59 -60 -63 -25 -3 -57
-16 -77 -32 -32 -24 -43 -26 -124 -26 -50 0 -116 -7 -148 -15 -33 -9 -61 -13
-64 -11 -2 3 16 147 40 322 l44 316 -50 41 c-353 279 -834 478 -1286 531 -166
19 -359 26 -500 16z m2238 -1230 c43 -26 63 -75 66 -160 2 -67 3 -69 53 -124
75 -81 130 -206 112 -254 -5 -12 -12 -22 -16 -21 -4 0 -21 27 -37 60 -22 47
-41 70 -86 103 -32 23 -71 48 -87 55 -22 9 -41 32 -68 81 -39 70 -76 105 -145
134 -45 18 -179 46 -225 46 -28 0 -35 4 -35 19 0 16 13 21 84 31 46 7 116 11
155 8 41 -3 74 -1 77 4 9 15 66 37 94 38 14 0 40 -9 58 -20z m-375 -125 c101
-18 255 -90 235 -110 -7 -7 -572 -185 -585 -185 -5 0 -16 19 -27 41 -13 29
-38 54 -92 92 l-74 51 137 53 c76 29 147 57 158 62 30 14 160 12 248 -4z
m-524 -185 c41 -30 87 -92 111 -150 15 -36 16 -36 94 -10 34 11 176 56 316 99
232 72 256 78 268 63 7 -9 11 -23 10 -31 -3 -12 -271 -144 -448 -220 -36 -16
-129 -59 -207 -96 l-143 -68 0 -38 c0 -44 39 -469 45 -485 2 -6 32 -27 67 -47
67 -38 135 -102 162 -156 25 -48 31 -115 13 -141 -15 -21 -16 -20 -32 36 -21
72 -61 132 -113 168 -40 27 -146 75 -168 76 -6 0 -19 33 -29 73 -9 39 -30 101
-46 135 -34 75 -111 187 -140 202 -18 10 -16 15 36 73 31 34 75 100 98 146 40
81 42 88 42 176 0 83 -3 97 -31 153 l-32 61 32 4 c17 2 36 5 42 5 6 1 30 -12
53 -28z m-169 -20 c99 -99 66 -263 -96 -469 -39 -50 -61 -70 -72 -67 -10 3
-69 12 -132 22 -63 9 -116 18 -118 19 -2 2 3 16 11 32 63 122 33 282 -81 421
-21 26 -29 42 -21 42 8 0 57 5 109 9 52 5 145 13 205 16 61 4 111 8 112 9 15
13 51 -2 83 -34z m1068 -64 c79 -40 151 -131 191 -241 l22 -61 -287 -479
c-157 -264 -320 -538 -361 -610 -107 -184 -100 -178 -95 -86 4 67 1 87 -17
124 -20 40 -20 50 -10 121 21 155 -42 293 -171 377 -40 26 -50 38 -54 68 -13
88 -48 402 -45 405 2 2 173 90 379 196 206 106 379 196 385 201 12 12 9 13 63
-15z m-1577 -40 c49 -64 79 -155 79 -236 0 -96 -6 -109 -57 -131 -25 -10 -46
-19 -48 -19 -1 0 -4 35 -7 78 -5 96 -38 171 -103 241 l-46 49 63 36 c35 19 68
34 73 32 6 -1 26 -24 46 -50z m-208 -68 c82 -83 134 -198 150 -337 5 -42 3
-46 -46 -99 -61 -65 -154 -128 -211 -143 -52 -14 -136 -14 -180 1 -19 6 -49
27 -66 46 -35 41 -40 97 -12 155 21 45 294 428 305 428 5 1 32 -23 60 -51z
m933 -909 c57 -29 129 -106 156 -166 23 -52 26 -130 8 -178 -9 -23 -229 -343
-261 -379 -4 -4 -5 19 -2 51 11 117 -51 222 -157 267 -25 11 -47 21 -49 22 -1
2 41 95 95 209 l99 206 33 -5 c18 -3 53 -15 78 -27z m275 -396 c14 -45 14
-145 -1 -173 -18 -33 -30 -23 -30 25 0 26 -7 60 -16 77 -15 28 -15 34 2 69 9
22 21 39 25 39 4 0 13 -17 20 -37z m-519 -76 c63 -48 102 -126 103 -204 0 -51
-4 -65 -22 -82 -12 -12 -25 -21 -28 -21 -3 0 -5 27 -5 59 0 97 -47 179 -125
218 -41 21 -41 20 -20 43 25 28 47 25 97 -13z m-151 -43 c90 -46 159 -148 159
-235 0 -103 3 -100 -153 -167 -78 -33 -158 -67 -178 -75 l-36 -15 -6 64 c-10
109 -75 204 -161 235 -20 7 -36 16 -36 19 0 8 352 190 368 190 7 0 27 -7 43
-16z m582 -2 c27 -29 31 -77 13 -126 -13 -33 -36 -59 -94 -107 -42 -35 -79
-66 -82 -69 -17 -18 -129 -110 -134 -110 -4 0 -2 9 5 21 6 12 8 35 5 53 -5 24
-1 37 17 56 13 14 43 50 67 81 143 178 176 218 181 218 3 1 13 -7 22 -17z
m-965 -241 c65 -34 113 -99 127 -173 6 -33 4 -38 -24 -52 -40 -21 -51 -20 -51
4 0 37 -41 109 -86 150 -24 22 -48 40 -54 40 -20 0 -10 20 18 34 34 19 26 19
70 -3z m-132 -60 c76 -54 130 -136 140 -214 l6 -43 -123 -105 c-154 -131 -228
-189 -241 -189 -5 0 -30 14 -54 32 -47 33 -84 96 -84 141 0 36 48 130 101 197
62 79 190 210 204 210 7 0 30 -13 51 -29z m771 -78 c-8 -46 -27 -68 -27 -31 0
15 -5 30 -12 34 -7 5 -5 11 7 21 30 21 38 15 32 -24z m-57 -49 c0 -53 -19 -69
-166 -142 -79 -40 -146 -72 -149 -72 -3 0 -5 12 -5 28 0 15 -7 39 -14 54 l-15
28 57 25 c31 14 104 47 162 74 110 51 130 51 130 5z m-368 -141 c25 -30 28
-50 9 -67 -24 -22 -26 -21 -49 24 -18 37 -18 41 -3 50 22 13 26 12 43 -7z
m-75 -45 c28 -32 35 -56 22 -79 -28 -53 -197 -123 -280 -117 l-44 3 80 65 c98
80 188 149 196 150 3 0 15 -10 26 -22z"/>
</g>
</svg>
