<?xml version="1.0" standalone="no"?>
<!DOCTYPE svg PUBLIC "-//W3C//DTD SVG 20010904//EN"
 "http://www.w3.org/TR/2001/REC-SVG-20010904/DTD/svg10.dtd">
<svg version="1.0" xmlns="http://www.w3.org/2000/svg"
 width="336.000000pt" height="336.000000pt" viewBox="0 0 336.000000 336.000000"
 preserveAspectRatio="xMidYMid meet">
<metadata>
Created by potrace 1.11, written by Peter Selinger 2001-2013
</metadata>
<g transform="translate(0.000000,336.000000) scale(0.100000,-0.100000)"
fill="#000000" stroke="none">
<path d="M0 1680 l0 -1680 1680 0 1680 0 0 1680 0 1680 -1680 0 -1680 0 0
-1680z m1992 1380 c493 -105 903 -469 1062 -944 54 -161 70 -266 70 -456 -1
-141 -5 -195 -22 -277 -59 -275 -181 -508 -371 -705 -209 -218 -456 -356 -754
-420 -136 -29 -398 -31 -532 -4 -513 102 -924 455 -1099 944 -62 175 -89 426
-67 621 76 645 562 1150 1210 1256 122 20 375 13 503 -15z"/>
<path d="M1545 2953 c-81 -10 -199 -38 -275 -65 -105 -37 -243 -106 -236 -117
3 -5 -2 -8 -12 -7 -9 0 -16 -4 -15 -11 2 -7 -3 -10 -11 -7 -8 3 -17 0 -22 -7
-5 -8 -3 -10 7 -4 8 5 11 4 6 -1 -5 -5 -16 -9 -25 -9 -9 0 -16 -5 -15 -11 1
-7 -5 -11 -15 -10 -9 0 -16 -5 -14 -12 1 -8 -2 -11 -7 -8 -13 8 -62 -34 -55
-46 4 -7 2 -8 -5 -4 -15 10 -123 -100 -200 -203 -157 -213 -257 -514 -249
-755 l3 -89 26 39 c21 31 30 64 43 161 44 331 222 648 474 844 82 64 96 78 57
55 l-30 -17 24 20 c12 12 27 18 32 15 5 -3 21 3 37 14 43 31 180 97 260 126
134 48 262 69 427 70 249 1 454 -53 665 -176 l35 -20 -25 21 c-47 38 -235 129
-332 160 -54 17 -140 38 -190 46 -84 13 -286 18 -363 8z"/>
<path d="M2716 2425 c-4 -15 -14 -25 -24 -25 -10 0 -27 -7 -38 -15 -10 -8 -38
-15 -61 -15 -24 0 -43 -4 -43 -10 0 -5 22 -10 49 -10 28 0 53 5 56 10 8 14 51
13 74 -2 25 -16 51 -3 50 24 -1 17 -2 18 -6 6 -2 -10 -8 -18 -13 -18 -17 0
-31 29 -24 54 3 15 2 26 -4 26 -5 0 -13 -11 -16 -25z"/>
<path d="M2760 2282 c0 -28 7 -45 24 -61 13 -12 30 -39 39 -59 8 -20 18 -44
21 -52 4 -8 17 -32 30 -53 19 -31 25 -35 30 -22 9 25 -14 97 -28 86 -8 -7 -19
6 -35 42 -13 29 -32 64 -42 79 -11 14 -19 38 -19 52 0 14 -4 26 -10 26 -5 0
-10 -17 -10 -38z"/>
<path d="M2581 2297 c2 -2 27 -16 54 -32 36 -20 46 -23 35 -10 -8 10 -29 24
-47 32 -30 12 -52 17 -42 10z"/>
<path d="M2521 2195 c-127 -41 -139 -46 -125 -51 6 -3 68 13 139 35 96 30 131
37 137 28 12 -19 10 -25 -13 -32 -11 -4 -19 -9 -17 -11 2 -2 21 2 41 8 l37 11
-22 24 c-28 30 -50 28 -177 -12z"/>
<path d="M1395 2147 c66 -16 123 -35 127 -41 4 -6 10 -8 13 -4 16 16 -33 37
-132 56 -148 30 -151 26 -8 -11z"/>
<path d="M2331 2146 c7 -14 17 -25 21 -24 17 6 13 21 -10 36 -23 15 -23 15
-11 -12z"/>
<path d="M2227 2140 c8 -29 -22 -105 -62 -161 -31 -42 -42 -49 -70 -49 -19 0
-35 -6 -38 -14 -6 -15 1 -17 88 -32 l40 -7 -19 21 c-18 21 -18 22 11 59 17 21
38 52 47 70 17 34 22 133 7 133 -5 0 -7 -9 -4 -20z"/>
<path d="M2760 2156 c0 -2 8 -10 18 -17 15 -13 16 -12 3 4 -13 16 -21 21 -21
13z"/>
<path d="M2898 2155 c-6 -6 23 -89 35 -101 12 -12 8 9 -11 59 -10 26 -21 45
-24 42z"/>
<path d="M1566 2118 c4 -13 12 -27 19 -33 7 -5 19 -21 29 -35 11 -16 16 -19
16 -9 0 35 -22 77 -46 88 -24 10 -25 10 -18 -11z"/>
<path d="M1977 2098 c4 -13 8 -46 8 -75 0 -28 3 -49 8 -46 8 5 10 105 1 127
-10 25 -26 19 -17 -6z"/>
<path d="M2510 2099 c-30 -11 -89 -35 -131 -55 -94 -44 -98 -52 -84 -197 10
-105 11 -109 38 -124 35 -18 50 -7 21 15 -16 14 -23 37 -32 114 -7 53 -12 104
-12 112 0 10 47 40 130 81 72 36 130 67 130 70 0 3 -1 5 -2 4 -2 0 -28 -9 -58
-20z"/>
<path d="M2805 2078 c14 -24 25 -48 25 -55 0 -6 -74 -135 -164 -287 -161 -269
-164 -277 -150 -304 9 -17 12 -40 8 -62 -4 -19 -4 -33 -1 -30 3 3 89 145 191
315 l185 309 -15 35 c-22 52 -44 82 -54 76 -6 -4 -10 1 -10 9 0 8 -9 20 -19
26 -18 9 -18 6 4 -32z"/>
<path d="M1891 2044 c10 -20 21 -57 25 -81 6 -40 3 -47 -22 -74 -34 -35 -118
-79 -153 -79 l-26 -1 24 -19 c29 -25 99 -27 144 -4 51 26 97 75 97 103 0 49
-11 72 -30 66 -15 -5 -19 2 -25 37 -7 45 -29 88 -44 88 -5 0 -1 -16 10 -36z"/>
<path d="M1567 2011 c48 -106 53 -120 53 -145 0 -32 -25 -56 -57 -56 -21 0
-23 -2 -13 -14 19 -24 74 -38 104 -27 32 13 34 42 6 78 -11 15 -18 34 -15 43
9 27 -59 166 -83 172 -20 6 -20 4 5 -51z"/>
<path d="M1216 1980 c4 -21 -8 -41 -64 -105 -88 -101 -92 -110 -92 -188 0 -96
44 -197 98 -226 14 -8 12 2 -11 48 -22 46 -28 71 -28 124 0 79 5 90 92 191 73
84 82 105 48 113 -11 3 -26 20 -34 37 -12 26 -13 27 -9 6z"/>
<path d="M1411 1934 c-11 -26 -24 -27 -93 -8 -19 6 -23 -3 -10 -22 6 -9 105
-34 135 -34 6 0 2 9 -8 20 -12 13 -15 27 -11 45 8 32 2 32 -13 -1z"/>
<path d="M1997 1920 c4 -16 9 -18 24 -9 26 14 24 29 -5 29 -19 0 -23 -4 -19
-20z"/>
<path d="M2993 1660 c0 -36 2 -50 4 -32 2 17 2 47 0 65 -2 17 -4 3 -4 -33z"/>
<path d="M2320 1673 c0 -5 11 -13 25 -20 29 -13 33 -6 8 13 -20 15 -33 18 -33
7z"/>
<path d="M2410 1667 c0 -2 7 -20 15 -38 14 -33 14 -33 15 -8 0 15 -7 32 -15
39 -8 7 -15 10 -15 7z"/>
<path d="M2374 1599 c30 -44 21 -100 -30 -174 -53 -77 -48 -111 6 -44 l33 42
19 -23 c14 -18 18 -19 18 -5 0 9 -5 25 -10 36 -8 13 -7 25 0 39 15 28 26 25
38 -12 8 -27 10 -29 11 -10 1 13 -4 33 -11 45 -6 12 -12 33 -12 47 -1 18 -6
24 -18 22 -12 -2 -18 4 -18 15 0 10 -10 24 -21 31 -21 13 -21 13 -5 -9z"/>
<path d="M2981 1504 c0 -11 3 -14 6 -6 3 7 2 16 -1 19 -3 4 -6 -2 -5 -13z"/>
<path d="M2971 1434 c0 -11 3 -14 6 -6 3 7 2 16 -1 19 -3 4 -6 -2 -5 -13z"/>
<path d="M2481 1421 c-9 -16 -9 -31 0 -61 15 -49 29 -43 29 13 0 56 -14 78
-29 48z"/>
<path d="M2225 1380 c14 -46 24 -58 25 -29 0 15 -7 33 -16 40 -15 12 -16 11
-9 -11z"/>
<path d="M2380 1289 c-43 -54 -65 -91 -66 -110 -2 -34 -6 -36 89 45 33 27 63
60 68 73 9 23 -4 73 -18 73 -5 0 -37 -37 -73 -81z"/>
<path d="M2178 1343 c13 -23 16 -72 6 -96 -3 -8 -32 -25 -65 -37 -32 -12 -59
-28 -59 -36 0 -9 20 -4 65 17 68 31 90 30 82 -2 -6 -22 -3 -23 22 -10 12 7 18
24 20 56 3 58 -5 71 -30 49 -18 -16 -19 -16 -19 18 0 21 -7 41 -17 49 -15 13
-15 12 -5 -8z m62 -115 c0 -7 -4 -19 -9 -26 -7 -11 -10 -10 -15 3 -10 26 -7
35 9 35 8 0 15 -6 15 -12z"/>
<path d="M2271 1321 c-14 -25 -14 -44 -1 -36 17 11 31 43 21 50 -6 3 -15 -3
-20 -14z"/>
<path d="M1971 1245 c0 -6 7 -26 15 -45 l14 -35 -5 35 c-5 30 -26 70 -24 45z"/>
<path d="M1562 1224 c56 -65 74 -171 37 -218 l-21 -27 23 -25 c12 -13 28 -24
36 -24 18 0 44 43 44 76 2 82 -34 155 -101 210 -19 15 -27 19 -18 8z"/>
<path d="M1918 1178 l16 -41 -49 -44 c-28 -24 -69 -58 -92 -76 -23 -17 -43
-35 -43 -39 0 -4 14 -16 30 -28 l31 -22 49 38 c28 21 50 39 50 40 0 1 -18 0
-40 -3 -22 -3 -40 -3 -40 0 0 2 32 31 70 62 56 46 73 55 84 46 11 -9 10 -3 -2
24 -9 19 -22 33 -28 31 -7 -3 -15 6 -18 19 -3 12 -12 25 -20 28 -11 5 -11 -2
2 -35z"/>
<path d="M2278 1184 c-8 -8 3 -44 13 -44 5 0 9 11 9 25 0 24 -10 32 -22 19z"/>
<path d="M2013 1163 c-19 -7 -16 -16 8 -31 12 -8 18 -9 14 -2 -4 6 -1 17 5 25
10 12 10 15 -1 14 -8 0 -20 -3 -26 -6z"/>
<path d="M2173 1132 c-53 -24 -79 -40 -73 -46 6 -6 10 -20 10 -33 0 -23 1 -23
80 17 73 37 80 43 80 70 0 17 -3 30 -7 30 -5 0 -45 -17 -90 -38z"/>
<path d="M727 1133 c15 -7 40 -12 55 -13 35 0 59 -10 52 -21 -6 -11 47 -11
141 0 147 18 389 -17 512 -73 29 -14 53 -23 53 -21 0 11 -106 67 -169 89 -129
46 -231 58 -463 54 -174 -2 -204 -5 -181 -15z"/>
<path d="M2061 1081 c-9 -6 -10 -11 -2 -15 6 -4 11 -12 11 -18 0 -6 -8 -4 -18
5 -16 15 -22 13 -84 -36 -37 -29 -67 -55 -68 -59 0 -15 55 -7 100 13 46 21 99
66 100 85 0 18 -24 34 -39 25z"/>
<path d="M777 934 c-55 -161 -59 -146 53 -243 l65 -55 -50 52 -50 52 53 157
c28 86 51 158 49 159 -1 1 -18 5 -37 9 l-36 6 -47 -137z"/>
<path d="M2810 1000 c-6 -11 -8 -20 -6 -20 3 0 10 9 16 20 6 11 8 20 6 20 -3
0 -10 -9 -16 -20z"/>
<path d="M2724 873 c-15 -20 -23 -33 -16 -29 13 8 56 66 49 66 -3 0 -17 -17
-33 -37z"/>
<path d="M2610 743 l-85 -88 88 85 c48 46 87 86 87 87 0 8 -11 -3 -90 -84z"/>
<path d="M2480 629 c-35 -31 -35 -31 -3 -9 18 11 35 25 38 30 10 16 2 11 -35
-21z"/>
<path d="M2410 579 c-22 -18 -22 -19 -3 -10 12 6 25 16 28 21 9 15 3 12 -25
-11z"/>
<path d="M2354 544 c-18 -14 -18 -15 4 -4 12 6 22 13 22 15 0 8 -5 6 -26 -11z"/>
<path d="M2270 500 c-9 -6 -10 -10 -3 -10 6 0 15 5 18 10 8 12 4 12 -15 0z"/>
<path d="M2200 470 c-8 -5 -10 -10 -5 -10 6 0 17 5 25 10 8 5 11 10 5 10 -5 0
-17 -5 -25 -10z"/>
<path d="M2048 413 c7 -3 16 -2 19 1 4 3 -2 6 -13 5 -11 0 -14 -3 -6 -6z"/>
<path d="M1968 393 c7 -3 16 -2 19 1 4 3 -2 6 -13 5 -11 0 -14 -3 -6 -6z"/>
<path d="M1918 383 c7 -3 16 -2 19 1 4 3 -2 6 -13 5 -11 0 -14 -3 -6 -6z"/>
<path d="M1528 373 c6 -2 18 -2 25 0 6 3 1 5 -13 5 -14 0 -19 -2 -12 -5z"/>
<path d="M1843 373 c9 -2 23 -2 30 0 6 3 -1 5 -18 5 -16 0 -22 -2 -12 -5z"/>
<path d="M1663 363 c20 -2 54 -2 75 0 20 2 3 4 -38 4 -41 0 -58 -2 -37 -4z"/>
</g>
</svg>
